<?xml version="1.0" encoding="UTF-8"?>
<svg version="1.1" xmlns="http://www.w3.org/2000/svg" width="512" height="512">
<path d="M0 0 C4.10850295 0.00706499 8.21693005 -0.00906055 12.32540977 -0.02199733 C20.35051537 -0.04352141 28.37547854 -0.04354048 36.40060347 -0.03537179 C42.9293915 -0.02904504 49.45813832 -0.0302332 55.98692596 -0.03664386 C56.91984887 -0.03754552 57.85277177 -0.03844717 58.81396507 -0.03937615 C60.70981157 -0.04122755 62.60565807 -0.04309011 64.50150455 -0.04496371 C82.23640814 -0.06150165 99.97123193 -0.05285703 117.70613069 -0.03597813 C133.89410249 -0.02128343 150.08188864 -0.03591348 166.26983654 -0.06474829 C182.93707123 -0.09421324 199.60422045 -0.10509402 216.27148002 -0.09556609 C218.16025089 -0.09454366 220.04902177 -0.09354904 221.93779266 -0.09258258 C222.86684273 -0.09210619 223.7958928 -0.0916298 224.75309591 -0.09113898 C231.26514824 -0.08898428 237.77711876 -0.09872827 244.28915298 -0.11335361 C252.23802973 -0.13095875 260.18666999 -0.13064305 268.1355378 -0.10800195 C272.18261899 -0.09693376 276.22928482 -0.09352623 280.27634704 -0.11230266 C315.72901188 -0.26439979 340.78771232 7.4467725 366.52926719 32.53755772 C375.63260259 41.60883913 382.2311744 52.42571908 387.84176719 63.91255772 C388.15500938 64.53453038 388.46825157 65.15650303 388.79098594 65.79732335 C396.73593204 82.75672752 396.11244969 100.43521915 396.05216587 118.70627534 C396.043037 122.80592602 396.05712366 126.90551088 396.06808555 131.00514805 C396.08579349 139.0168309 396.08206517 147.02836314 396.07043499 155.04005168 C396.06136908 161.55745311 396.06019026 168.07481259 396.06453025 174.59221852 C396.06514319 175.52292577 396.06575612 176.45363301 396.06638762 177.41254351 C396.06766664 179.30380182 396.0689635 181.19506011 396.07027799 183.08631839 C396.08166149 200.78637369 396.06860584 218.48634589 396.04707652 236.18638755 C396.02921349 251.34075803 396.03230745 266.49500587 396.05075157 281.64937413 C396.072208 299.28678703 396.08055687 316.9241272 396.06830251 334.56155133 C396.06702845 336.44612267 396.06577096 338.33069403 396.06453025 340.21526539 C396.06391315 341.14228204 396.06329605 342.06929869 396.06266025 343.02440675 C396.05922119 349.52536873 396.06500449 356.0262842 396.07444847 362.52723897 C396.0857233 370.46226246 396.08251432 378.39712789 396.06132549 386.33213352 C396.05088735 390.37294469 396.04656776 394.41349334 396.0599221 398.45430195 C396.16246114 432.38664117 390.45738634 459.99938271 366.00192344 485.13521397 C340.96441381 508.92268641 312.35014309 513.16796516 279.05853438 513.07511544 C274.95003143 513.06805045 270.84160433 513.08417599 266.73312461 513.09711277 C258.70801901 513.11863685 250.68305584 513.11865592 242.65793092 513.11048723 C236.12914288 513.10416048 229.60039606 513.10534864 223.07160842 513.11175931 C222.13868552 513.11266096 221.20576261 513.11356262 220.24456931 513.11449159 C218.34872281 513.11634299 216.45287632 513.11820555 214.55702984 513.12007915 C196.82212624 513.13661709 179.08730246 513.12797247 161.35240369 513.11109357 C145.16443189 513.09639888 128.97664575 513.11102892 112.78869785 513.13986374 C96.12146316 513.16932869 79.45431393 513.18020946 62.78705436 513.17068154 C60.8982835 513.1696591 59.00951262 513.16866448 57.12074172 513.16769803 C56.19169165 513.16722164 55.26264158 513.16674525 54.30543848 513.16625442 C47.79338614 513.16409973 41.28141562 513.17384371 34.7693814 513.18846905 C26.82050465 513.20607419 18.87186439 513.20575849 10.92299659 513.1831174 C6.87591539 513.1720492 2.82924956 513.16864168 -1.21781266 513.1874181 C-36.67047749 513.33951523 -61.72917794 505.62834294 -87.47073281 480.53755772 C-96.57406821 471.46627632 -103.17264002 460.64939636 -108.78323281 449.16255772 C-109.096475 448.54058506 -109.40971718 447.91861241 -109.73245156 447.2777921 C-117.67739766 430.31838792 -117.05391531 412.63989629 -116.99363148 394.3688401 C-116.98450262 390.26918942 -116.99858928 386.16960456 -117.00955117 382.06996739 C-117.0272591 374.05828454 -117.02353079 366.0467523 -117.0119006 358.03506376 C-117.0028347 351.51766233 -117.00165588 345.00030286 -117.00599587 338.48289692 C-117.0066088 337.55218968 -117.00722173 336.62148243 -117.00785324 335.66257193 C-117.00913226 333.77131363 -117.01042912 331.88005533 -117.01174361 329.98879705 C-117.0231271 312.28874175 -117.01007145 294.58876956 -116.98854214 276.88872789 C-116.9706791 261.73435742 -116.97377306 246.58010957 -116.99221718 231.42574131 C-117.01367361 213.78832842 -117.02202249 196.15098824 -117.00976813 178.51356411 C-117.00849406 176.62899277 -117.00723658 174.74442141 -117.00599587 172.85985005 C-117.00537877 171.9328334 -117.00476167 171.00581675 -117.00412586 170.05070869 C-117.00068681 163.54974671 -117.0064701 157.04883125 -117.01591408 150.54787648 C-117.02718891 142.61285299 -117.02397994 134.67798755 -117.00279111 126.74298193 C-116.99235297 122.70217076 -116.98803337 118.6616221 -117.00138772 114.62081349 C-117.10392676 80.68847427 -111.39885196 53.07573274 -86.94338906 27.93990147 C-61.90587943 4.15242903 -33.29160871 -0.09284972 0 0 Z " fill="#000000" transform="translate(116.4707328081131,-0.5375577211380005)"/>
<path d="M0 0 C0.93035568 -0.00511093 1.86071136 -0.01022186 2.81925964 -0.01548767 C5.90048624 -0.02940935 8.9814898 -0.02842497 12.06274414 -0.02612305 C14.2012185 -0.03000854 16.33969209 -0.0343429 18.47816467 -0.03910828 C22.96300761 -0.04657602 27.44777184 -0.04627517 31.93261719 -0.04101562 C37.68412793 -0.03522009 43.43531675 -0.05215149 49.18677425 -0.0753603 C53.60394683 -0.09008134 58.02104157 -0.09097156 62.43823433 -0.08785057 C64.55895183 -0.0883646 66.67967359 -0.09361751 68.80036736 -0.10366249 C71.76426072 -0.11597797 74.72752324 -0.1092645 77.69140625 -0.09765625 C78.56998291 -0.10529999 79.44855957 -0.11294373 80.35375977 -0.12081909 C86.27110857 -0.06950866 86.27110857 -0.06950866 89.42300415 1.62733459 C91.57174448 4.00711113 91.971544 6.20357593 92.65649414 9.3215332 C93.07257935 11.16122681 93.07257935 11.16122681 93.49707031 13.03808594 C93.78097272 14.36688092 94.06457616 15.69573982 94.34790039 17.0246582 C94.65029451 18.38572806 94.95409956 19.74648518 95.25927734 21.10693359 C96.1632094 25.15855535 97.03894969 29.21594769 97.91040039 33.2746582 C98.38425653 35.46608655 98.85820603 37.65749472 99.33227539 39.84887695 C99.95935603 42.75158093 100.58554813 45.65444171 101.20703125 48.55834961 C102.57560827 54.90351886 104.15360204 61.14822129 105.87524414 67.4074707 C108.73978155 77.94157601 111.25947071 88.61091701 113.28540039 99.3371582 C114.6673918 106.48915893 116.43622564 113.52640292 118.22290039 120.5871582 C122.26038868 136.54616342 125.96435226 152.56999589 129.55883789 168.6340332 C130.13401648 171.20181822 130.70954307 173.76952531 131.28540039 176.3371582 C131.42993652 176.98190094 131.57447266 177.62664368 131.72338867 178.29092407 C134.16743633 189.17461611 136.76441974 200.01667802 139.4190979 210.85070801 C142.19163462 222.17396708 144.79474345 233.52651277 147.32080078 244.90722656 C148.76606462 251.36990016 150.26976091 257.81029468 151.90258789 264.2277832 C152.22799561 265.5067749 152.55340332 266.7857666 152.88867188 268.10351562 C153.51139419 270.52736198 154.14073283 272.9495217 154.77783203 275.36962891 C155.05747803 276.45332764 155.33712402 277.53702637 155.62524414 278.65356445 C155.99830688 280.07004272 155.99830688 280.07004272 156.37890625 281.51513672 C156.9803694 284.63793783 157.33945106 287.10864289 156.91040039 290.2746582 C154.33244946 292.86531781 152.64712276 294.14942112 149.01502514 294.76684952 C147.9429799 294.76316235 146.87093466 294.75947517 145.7664032 294.75567627 C143.91339348 294.76392426 143.91339348 294.76392426 142.02294922 294.77233887 C140.66210546 294.75818423 139.30126565 294.74364502 137.94042969 294.72875977 C136.50128715 294.72763095 135.0621423 294.72826581 133.6230011 294.73052979 C129.72239268 294.73167656 125.82227716 294.70817361 121.92178321 294.68023396 C117.84321075 294.655214 113.76462675 294.65287784 109.68598938 294.64813232 C101.96536615 294.63570427 94.24496971 294.60288505 86.52444631 294.56273437 C77.73371951 294.5180113 68.94298184 294.49602828 60.15216959 294.47595263 C42.07145132 294.4341522 23.99094409 294.36380352 5.91040039 294.2746582 C3.92874782 290.3963361 2.35385963 286.81861034 1.26196289 282.59887695 C0.98126953 281.5315332 0.70057617 280.46418945 0.41137695 279.36450195 C0.12230469 278.24172852 -0.16676758 277.11895508 -0.46459961 275.9621582 C-1.08028093 273.62191768 -1.69747087 271.28207354 -2.31616211 268.94262695 C-2.61683594 267.8035791 -2.91750977 266.66453125 -3.22729492 265.4909668 C-4.36885909 261.2330488 -5.58312478 256.99991553 -6.83959961 252.7746582 C-7.13942749 251.76447632 -7.13942749 251.76447632 -7.4453125 250.73388672 C-8.30320008 247.86012644 -9.17702345 244.9916718 -10.06225586 242.1262207 C-10.3394043 241.22645508 -10.61655273 240.32668945 -10.90209961 239.3996582 C-11.13541992 238.65973633 -11.36874023 237.91981445 -11.60913086 237.1574707 C-12.08959961 235.2746582 -12.08959961 235.2746582 -12.08959961 232.2746582 C-35.51959961 232.2746582 -58.94959961 232.2746582 -83.08959961 232.2746582 C-84.07959961 236.2346582 -85.06959961 240.1946582 -86.08959961 244.2746582 C-86.69131885 246.2729819 -87.31680233 248.26477457 -87.99194336 250.23950195 C-88.48839355 251.70649536 -88.48839355 251.70649536 -88.99487305 253.203125 C-89.33550781 254.19610596 -89.67614258 255.18908691 -90.02709961 256.2121582 C-90.74041546 258.32116949 -91.45266579 260.43054148 -92.16381836 262.5402832 C-92.66727783 264.03205078 -92.66727783 264.03205078 -93.1809082 265.55395508 C-95.31609373 271.946891 -97.24639663 278.40152212 -99.14428711 284.8684082 C-99.49749023 286.0543457 -99.85069336 287.2402832 -100.21459961 288.4621582 C-100.52655273 289.52821289 -100.83850586 290.59426758 -101.15991211 291.69262695 C-102.08959961 294.2746582 -102.08959961 294.2746582 -104.08959961 296.2746582 C-106.55780602 296.53192711 -106.55780602 296.53192711 -109.73202515 296.54208374 C-110.93221786 296.55061371 -112.13241058 296.55914368 -113.36897278 296.56793213 C-114.7060243 296.56723304 -116.04307572 296.56630995 -117.38012695 296.56518555 C-118.78278462 296.57116735 -120.18543899 296.57797208 -121.58808899 296.58554077 C-125.40425065 296.60324455 -129.22032268 296.60789801 -133.03652143 296.60917234 C-136.21995992 296.61106901 -139.40337742 296.61842395 -142.58680785 296.62551653 C-150.09686379 296.64181508 -157.60687177 296.64668419 -165.11694336 296.64526367 C-172.86845785 296.64406216 -180.61969394 296.66516241 -188.37113798 296.696751 C-195.02172991 296.72288936 -201.67223079 296.73363198 -208.32287371 296.73235285 C-212.29694622 296.73184245 -216.2707715 296.73756818 -220.24479294 296.75870895 C-223.98280076 296.77805029 -227.7203245 296.77824446 -231.45834923 296.76367569 C-233.48531303 296.76058195 -235.51227666 296.77729307 -237.53916931 296.79455566 C-239.34791786 296.7819722 -239.34791786 296.7819722 -241.19320679 296.76913452 C-242.76557633 296.77076882 -242.76557633 296.77076882 -244.36971092 296.77243614 C-247.78162474 296.14800786 -248.97438187 294.96922916 -251.08959961 292.2746582 C-252.09861047 284.82588517 -248.7112903 276.15856934 -246.83959961 269.0246582 C-246.1998219 266.52510723 -245.56181925 264.02510129 -244.92553711 261.5246582 C-244.61197266 260.29489258 -244.2984082 259.06512695 -243.9753418 257.7980957 C-240.86556272 245.42755225 -238.21411773 232.95566306 -235.65209961 220.4621582 C-233.79522276 211.41088208 -231.72178469 202.43174184 -229.52685547 193.45703125 C-227.29136701 184.25732553 -225.24471137 175.02122978 -223.21459961 165.7746582 C-220.41241985 153.01634744 -217.44377609 140.30967526 -214.32666016 127.62478638 C-211.99610594 118.13443024 -209.80178975 108.63371636 -207.87866211 99.05200195 C-207.20238183 95.81456119 -206.42431901 92.62121144 -205.61669922 89.41493225 C-204.79138419 86.06376237 -204.05499724 82.69338722 -203.32006836 79.3215332 C-202.98785946 77.80978195 -202.65549705 76.29806443 -202.32299805 74.78637695 C-202.15215698 74.0082666 -201.98131592 73.23015625 -201.80529785 72.4284668 C-199.27372031 60.90736094 -196.71055059 49.41068356 -193.74707031 37.99145508 C-192.06043681 31.4034257 -190.73033799 24.758939 -189.52026367 18.06762695 C-188.54484957 12.86252188 -187.19717873 8.14502239 -185.08959961 3.2746582 C-181.71826333 1.58899006 -177.89812239 2.11825575 -174.18945312 2.11352539 C-173.26739075 2.10856049 -172.34532837 2.10359558 -171.39532471 2.09848022 C-168.33637759 2.08384054 -165.2774823 2.07705415 -162.21850586 2.0715332 C-160.0986277 2.06578394 -157.97874957 2.06002618 -155.85887146 2.05426025 C-151.41095741 2.0437456 -146.96306146 2.03790574 -142.51513672 2.03442383 C-136.80723866 2.02893331 -131.09957846 2.00489527 -125.3917551 1.97645187 C-121.01237786 1.95785827 -116.63305833 1.95262168 -112.25364494 1.95108795 C-110.14884069 1.94805427 -108.04403761 1.94000182 -105.93927193 1.92690277 C-102.99904215 1.9099082 -100.05939915 1.91170619 -97.11914062 1.91821289 C-96.24474838 1.90899811 -95.37035614 1.89978333 -94.46946716 1.89028931 C-88.51282965 1.93172613 -88.51282965 1.93172613 -86.39224148 3.64998245 C-84.64662884 5.82713843 -84.27528878 7.72226694 -83.69506836 10.4465332 C-83.34992188 12.01407349 -83.34992188 12.01407349 -82.99780273 13.61328125 C-82.7599707 14.73903564 -82.52213867 15.86479004 -82.27709961 17.0246582 C-81.7524433 19.40155508 -81.2250469 21.77784861 -80.69506836 24.15356445 C-80.29553955 25.95011475 -80.29553955 25.95011475 -79.88793945 27.78295898 C-78.72471111 32.87057115 -77.42512223 37.9174353 -76.08959961 42.9621582 C-75.84234131 43.89914551 -75.59508301 44.83613281 -75.34033203 45.80151367 C-74.59260863 48.62657074 -73.84123572 51.45063998 -73.08959961 54.2746582 C-69.63400355 67.31188421 -66.31519973 80.36861138 -63.20117188 93.49194336 C-61.60827665 100.18388895 -59.89956022 106.82563597 -58.08959961 113.4621582 C-56.58429043 119.20114945 -55.24365514 124.97766122 -53.88549805 130.75292969 C-52.41845907 136.96603488 -50.83710075 143.13400218 -49.08959961 149.2746582 C-45.15759481 135.61577772 -41.77171965 121.86118257 -38.52709961 108.0246582 C-33.32247747 85.84020216 -33.32247747 85.84020216 -30.09716797 74.88818359 C-28.09775631 67.7175289 -26.4798421 60.44917316 -24.78015137 53.20281982 C-22.81914712 44.88753089 -20.79239508 36.58815992 -18.75024414 28.29248047 C-18.21841181 26.12267729 -17.6912001 23.95173724 -17.16821289 21.77978516 C-16.40047456 18.59426164 -15.61780275 15.41274527 -14.83178711 12.23168945 C-14.60047089 11.25794876 -14.36915466 10.28420807 -14.13082886 9.28096008 C-13.90694489 8.38789658 -13.68306091 7.49483307 -13.45239258 6.57470703 C-13.26095673 5.78977371 -13.06952087 5.00484039 -12.87228394 4.19612122 C-10.6810503 -1.18328175 -4.84215493 -0.01362256 0 0 Z " fill="#010101" transform="translate(303.089599609375,107.725341796875)"/>
<path d="M0 0 C0.93035568 -0.00511093 1.86071136 -0.01022186 2.81925964 -0.01548767 C5.90048624 -0.02940935 8.9814898 -0.02842497 12.06274414 -0.02612305 C14.2012185 -0.03000854 16.33969209 -0.0343429 18.47816467 -0.03910828 C22.96300761 -0.04657602 27.44777184 -0.04627517 31.93261719 -0.04101562 C37.68412793 -0.03522009 43.43531675 -0.05215149 49.18677425 -0.0753603 C53.60394683 -0.09008134 58.02104157 -0.09097156 62.43823433 -0.08785057 C64.55895183 -0.0883646 66.67967359 -0.09361751 68.80036736 -0.10366249 C71.76426072 -0.11597797 74.72752324 -0.1092645 77.69140625 -0.09765625 C78.56998291 -0.10529999 79.44855957 -0.11294373 80.35375977 -0.12081909 C86.27110857 -0.06950866 86.27110857 -0.06950866 89.42300415 1.62733459 C91.57174448 4.00711113 91.971544 6.20357593 92.65649414 9.3215332 C93.07257935 11.16122681 93.07257935 11.16122681 93.49707031 13.03808594 C93.78097272 14.36688092 94.06457616 15.69573982 94.34790039 17.0246582 C94.65029451 18.38572806 94.95409956 19.74648518 95.25927734 21.10693359 C96.1632094 25.15855535 97.03894969 29.21594769 97.91040039 33.2746582 C98.38425653 35.46608655 98.85820603 37.65749472 99.33227539 39.84887695 C99.95935603 42.75158093 100.58554813 45.65444171 101.20703125 48.55834961 C102.57560827 54.90351886 104.15360204 61.14822129 105.87524414 67.4074707 C108.73978155 77.94157601 111.25947071 88.61091701 113.28540039 99.3371582 C114.6673918 106.48915893 116.43622564 113.52640292 118.22290039 120.5871582 C122.26038868 136.54616342 125.96435226 152.56999589 129.55883789 168.6340332 C130.13401648 171.20181822 130.70954307 173.76952531 131.28540039 176.3371582 C131.42993652 176.98190094 131.57447266 177.62664368 131.72338867 178.29092407 C134.16743633 189.17461611 136.76441974 200.01667802 139.4190979 210.85070801 C142.19163462 222.17396708 144.79474345 233.52651277 147.32080078 244.90722656 C148.76606462 251.36990016 150.26976091 257.81029468 151.90258789 264.2277832 C152.22799561 265.5067749 152.55340332 266.7857666 152.88867188 268.10351562 C153.51139419 270.52736198 154.14073283 272.9495217 154.77783203 275.36962891 C155.05747803 276.45332764 155.33712402 277.53702637 155.62524414 278.65356445 C155.99830688 280.07004272 155.99830688 280.07004272 156.37890625 281.51513672 C156.9803694 284.63793783 157.33945106 287.10864289 156.91040039 290.2746582 C154.33244946 292.86531781 152.64712276 294.14942112 149.01502514 294.76684952 C147.9429799 294.76316235 146.87093466 294.75947517 145.7664032 294.75567627 C143.91339348 294.76392426 143.91339348 294.76392426 142.02294922 294.77233887 C140.66210546 294.75818423 139.30126565 294.74364502 137.94042969 294.72875977 C136.50128715 294.72763095 135.0621423 294.72826581 133.6230011 294.73052979 C129.72239268 294.73167656 125.82227716 294.70817361 121.92178321 294.68023396 C117.84321075 294.655214 113.76462675 294.65287784 109.68598938 294.64813232 C101.96536615 294.63570427 94.24496971 294.60288505 86.52444631 294.56273437 C77.73371951 294.5180113 68.94298184 294.49602828 60.15216959 294.47595263 C42.07145132 294.4341522 23.99094409 294.36380352 5.91040039 294.2746582 C3.92874782 290.3963361 2.35385963 286.81861034 1.26196289 282.59887695 C0.98126953 281.5315332 0.70057617 280.46418945 0.41137695 279.36450195 C0.12230469 278.24172852 -0.16676758 277.11895508 -0.46459961 275.9621582 C-1.08028093 273.62191768 -1.69747087 271.28207354 -2.31616211 268.94262695 C-2.61683594 267.8035791 -2.91750977 266.66453125 -3.22729492 265.4909668 C-4.36885909 261.2330488 -5.58312478 256.99991553 -6.83959961 252.7746582 C-7.13942749 251.76447632 -7.13942749 251.76447632 -7.4453125 250.73388672 C-8.30320008 247.86012644 -9.17702345 244.9916718 -10.06225586 242.1262207 C-10.3394043 241.22645508 -10.61655273 240.32668945 -10.90209961 239.3996582 C-11.13541992 238.65973633 -11.36874023 237.91981445 -11.60913086 237.1574707 C-12.08959961 235.2746582 -12.08959961 235.2746582 -12.08959961 232.2746582 C-35.51959961 232.2746582 -58.94959961 232.2746582 -83.08959961 232.2746582 C-84.07959961 236.2346582 -85.06959961 240.1946582 -86.08959961 244.2746582 C-86.69131885 246.2729819 -87.31680233 248.26477457 -87.99194336 250.23950195 C-88.48839355 251.70649536 -88.48839355 251.70649536 -88.99487305 253.203125 C-89.33550781 254.19610596 -89.67614258 255.18908691 -90.02709961 256.2121582 C-90.74041546 258.32116949 -91.45266579 260.43054148 -92.16381836 262.5402832 C-92.66727783 264.03205078 -92.66727783 264.03205078 -93.1809082 265.55395508 C-95.31609373 271.946891 -97.24639663 278.40152212 -99.14428711 284.8684082 C-99.49749023 286.0543457 -99.85069336 287.2402832 -100.21459961 288.4621582 C-100.52655273 289.52821289 -100.83850586 290.59426758 -101.15991211 291.69262695 C-102.08959961 294.2746582 -102.08959961 294.2746582 -104.08959961 296.2746582 C-106.55780602 296.53192711 -106.55780602 296.53192711 -109.73202515 296.54208374 C-110.93221786 296.55061371 -112.13241058 296.55914368 -113.36897278 296.56793213 C-114.7060243 296.56723304 -116.04307572 296.56630995 -117.38012695 296.56518555 C-118.78278462 296.57116735 -120.18543899 296.57797208 -121.58808899 296.58554077 C-125.40425065 296.60324455 -129.22032268 296.60789801 -133.03652143 296.60917234 C-136.21995992 296.61106901 -139.40337742 296.61842395 -142.58680785 296.62551653 C-150.09686379 296.64181508 -157.60687177 296.64668419 -165.11694336 296.64526367 C-172.86845785 296.64406216 -180.61969394 296.66516241 -188.37113798 296.696751 C-195.02172991 296.72288936 -201.67223079 296.73363198 -208.32287371 296.73235285 C-212.29694622 296.73184245 -216.2707715 296.73756818 -220.24479294 296.75870895 C-223.98280076 296.77805029 -227.7203245 296.77824446 -231.45834923 296.76367569 C-233.48531303 296.76058195 -235.51227666 296.77729307 -237.53916931 296.79455566 C-239.34791786 296.7819722 -239.34791786 296.7819722 -241.19320679 296.76913452 C-242.76557633 296.77076882 -242.76557633 296.77076882 -244.36971092 296.77243614 C-247.78162474 296.14800786 -248.97438187 294.96922916 -251.08959961 292.2746582 C-252.09861047 284.82588517 -248.7112903 276.15856934 -246.83959961 269.0246582 C-246.1998219 266.52510723 -245.56181925 264.02510129 -244.92553711 261.5246582 C-244.61197266 260.29489258 -244.2984082 259.06512695 -243.9753418 257.7980957 C-240.86556272 245.42755225 -238.21411773 232.95566306 -235.65209961 220.4621582 C-233.79522276 211.41088208 -231.72178469 202.43174184 -229.52685547 193.45703125 C-227.29136701 184.25732553 -225.24471137 175.02122978 -223.21459961 165.7746582 C-220.41241985 153.01634744 -217.44377609 140.30967526 -214.32666016 127.62478638 C-211.99610594 118.13443024 -209.80178975 108.63371636 -207.87866211 99.05200195 C-207.20238183 95.81456119 -206.42431901 92.62121144 -205.61669922 89.41493225 C-204.79138419 86.06376237 -204.05499724 82.69338722 -203.32006836 79.3215332 C-202.98785946 77.80978195 -202.65549705 76.29806443 -202.32299805 74.78637695 C-202.15215698 74.0082666 -201.98131592 73.23015625 -201.80529785 72.4284668 C-199.27372031 60.90736094 -196.71055059 49.41068356 -193.74707031 37.99145508 C-192.06043681 31.4034257 -190.73033799 24.758939 -189.52026367 18.06762695 C-188.54484957 12.86252188 -187.19717873 8.14502239 -185.08959961 3.2746582 C-181.71826333 1.58899006 -177.89812239 2.11825575 -174.18945312 2.11352539 C-173.26739075 2.10856049 -172.34532837 2.10359558 -171.39532471 2.09848022 C-168.33637759 2.08384054 -165.2774823 2.07705415 -162.21850586 2.0715332 C-160.0986277 2.06578394 -157.97874957 2.06002618 -155.85887146 2.05426025 C-151.41095741 2.0437456 -146.96306146 2.03790574 -142.51513672 2.03442383 C-136.80723866 2.02893331 -131.09957846 2.00489527 -125.3917551 1.97645187 C-121.01237786 1.95785827 -116.63305833 1.95262168 -112.25364494 1.95108795 C-110.14884069 1.94805427 -108.04403761 1.94000182 -105.93927193 1.92690277 C-102.99904215 1.9099082 -100.05939915 1.91170619 -97.11914062 1.91821289 C-96.24474838 1.90899811 -95.37035614 1.89978333 -94.46946716 1.89028931 C-88.51282965 1.93172613 -88.51282965 1.93172613 -86.39224148 3.64998245 C-84.64662884 5.82713843 -84.27528878 7.72226694 -83.69506836 10.4465332 C-83.34992188 12.01407349 -83.34992188 12.01407349 -82.99780273 13.61328125 C-82.7599707 14.73903564 -82.52213867 15.86479004 -82.27709961 17.0246582 C-81.7524433 19.40155508 -81.2250469 21.77784861 -80.69506836 24.15356445 C-80.29553955 25.95011475 -80.29553955 25.95011475 -79.88793945 27.78295898 C-78.72471111 32.87057115 -77.42512223 37.9174353 -76.08959961 42.9621582 C-75.84234131 43.89914551 -75.59508301 44.83613281 -75.34033203 45.80151367 C-74.59260863 48.62657074 -73.84123572 51.45063998 -73.08959961 54.2746582 C-69.63400355 67.31188421 -66.31519973 80.36861138 -63.20117188 93.49194336 C-61.60827665 100.18388895 -59.89956022 106.82563597 -58.08959961 113.4621582 C-56.58429043 119.20114945 -55.24365514 124.97766122 -53.88549805 130.75292969 C-52.41845907 136.96603488 -50.83710075 143.13400218 -49.08959961 149.2746582 C-45.15759481 135.61577772 -41.77171965 121.86118257 -38.52709961 108.0246582 C-33.32247747 85.84020216 -33.32247747 85.84020216 -30.09716797 74.88818359 C-28.09775631 67.7175289 -26.4798421 60.44917316 -24.78015137 53.20281982 C-22.81914712 44.88753089 -20.79239508 36.58815992 -18.75024414 28.29248047 C-18.21841181 26.12267729 -17.6912001 23.95173724 -17.16821289 21.77978516 C-16.40047456 18.59426164 -15.61780275 15.41274527 -14.83178711 12.23168945 C-14.60047089 11.25794876 -14.36915466 10.28420807 -14.13082886 9.28096008 C-13.90694489 8.38789658 -13.68306091 7.49483307 -13.45239258 6.57470703 C-13.26095673 5.78977371 -13.06952087 5.00484039 -12.87228394 4.19612122 C-10.6810503 -1.18328175 -4.84215493 -0.01362256 0 0 Z M-0.08959961 15.2746582 C-4.05114786 30.4877397 -7.98594852 45.70567866 -11.77709961 60.9621582 C-12.14481993 62.43809912 -12.51265913 63.91401042 -12.88061523 65.38989258 C-13.42647555 67.57951561 -13.97204935 69.76920735 -14.51655579 71.95916748 C-15.35819068 75.34401029 -16.20389147 78.72767271 -17.05712891 82.10961914 C-18.99936886 89.81549683 -20.87716705 97.53434614 -22.71069336 105.2668457 C-23.0543821 106.7151754 -23.0543821 106.7151754 -23.40501404 108.19276428 C-24.34952709 112.17547433 -25.29345632 116.15831192 -26.23242188 120.14233398 C-28.76329257 130.87238182 -31.38052004 141.55002612 -34.39089966 152.15634155 C-36.13007895 158.31501395 -37.58820756 164.51105481 -38.90209961 170.7746582 C-39.22597656 172.27319336 -39.22597656 172.27319336 -39.55639648 173.80200195 C-40.6602859 178.49841116 -40.6602859 178.49841116 -41.08959961 183.2746582 C-45.70959961 183.2746582 -50.32959961 183.2746582 -55.08959961 183.2746582 C-55.75707567 180.9415538 -56.42365692 178.60820039 -57.08959961 176.2746582 C-57.27748047 175.61755859 -57.46536133 174.96045898 -57.65893555 174.28344727 C-60.19527907 165.38272066 -62.57197732 156.47293278 -64.64208984 147.4519043 C-65.6800974 142.94883688 -66.8138175 138.48468324 -68.02709961 134.0246582 C-69.65439026 128.03038052 -71.11368548 122.01019227 -72.52709961 115.9621582 C-74.04973524 109.45661598 -75.68170097 103.0084374 -77.52709961 96.5871582 C-79.66050328 89.14312139 -81.43681028 81.63776296 -83.15209961 74.0871582 C-85.09922911 65.52088642 -87.12196583 57.01319793 -89.46655273 48.54614258 C-90.27479948 45.59946244 -91.06473504 42.64802571 -91.85522461 39.6965332 C-92.17112549 38.51768555 -92.48702637 37.33883789 -92.8125 36.12426758 C-93.44718625 33.75580034 -94.08179135 31.38731135 -94.71630859 29.01879883 C-95.00836182 27.93276367 -95.30041504 26.84672852 -95.60131836 25.7277832 C-95.99516724 24.26066895 -95.99516724 24.26066895 -96.39697266 22.76391602 C-96.91025029 20.91922839 -97.48409764 19.09116412 -98.08959961 17.2746582 C-123.16959961 17.2746582 -148.24959961 17.2746582 -174.08959961 17.2746582 C-176.06959961 25.8546582 -178.04959961 34.4346582 -180.08959961 43.2746582 C-180.86303711 46.61461914 -181.63647461 49.95458008 -182.43334961 53.39575195 C-186.23066472 69.79520246 -189.98916587 86.20085316 -193.62084961 102.63793945 C-195.30283033 110.24959533 -197.00276879 117.85716726 -198.71459961 125.4621582 C-198.86443298 126.12786835 -199.01426636 126.79357849 -199.16864014 127.47946167 C-201.0682576 135.90553506 -203.04605247 144.30107601 -205.19482422 152.66674805 C-206.00869973 155.94845398 -206.7386659 159.23084734 -207.42944336 162.5402832 C-209.12718845 170.53466836 -210.96790142 178.49331602 -212.81890869 186.45339966 C-215.92002716 199.79372651 -218.97233848 213.14214609 -221.91430664 226.51855469 C-223.20801393 232.3770978 -224.5355703 238.2265567 -225.90600586 244.06762695 C-226.0616803 244.73137833 -226.21735474 245.3951297 -226.37774658 246.07899475 C-227.12850247 249.27554291 -227.8832444 252.47105901 -228.64282227 255.66552734 C-230.65283276 264.18069484 -232.37105796 272.68194993 -234.08959961 281.2746582 C-194.48959961 281.2746582 -154.88959961 281.2746582 -114.08959961 281.2746582 C-110.52626456 271.77243139 -107.1881411 262.63566991 -104.44897461 252.9309082 C-102.60706885 246.52622678 -100.54261015 240.19125981 -98.5 233.84838867 C-97.25558581 229.97554269 -96.02587615 226.1107656 -94.94506836 222.1887207 C-94.08959961 219.2746582 -94.08959961 219.2746582 -93.08959961 218.2746582 C-90.34171521 218.15818507 -87.61862881 218.10664503 -84.86962891 218.09765625 C-84.00784027 218.09108505 -83.14605164 218.08451385 -82.25814819 218.07774353 C-79.39337081 218.05796001 -76.52864596 218.04633666 -73.66381836 218.03637695 C-72.68782999 218.03230143 -71.71184162 218.0282259 -70.70627785 218.02402687 C-65.54051549 218.00314441 -60.37477986 217.98885223 -55.20898438 217.97949219 C-49.86539855 217.96842403 -44.52222875 217.9340256 -39.17879009 217.89432049 C-35.07730826 217.86820826 -30.97592632 217.85980515 -26.87436867 217.85621071 C-24.90434777 217.85133065 -22.93433175 217.83967654 -20.96439171 217.82117271 C-18.20850822 217.79689609 -15.45371097 217.79772518 -12.69775391 217.8046875 C-11.47335854 217.78547241 -11.47335854 217.78547241 -10.22422791 217.76586914 C-6.6164429 217.7991423 -4.53184295 217.93907677 -1.61418152 220.15304565 C0.11611957 222.5609376 0.86976515 224.52989593 1.62133789 227.39575195 C2.02980957 228.90758057 2.02980957 228.90758057 2.4465332 230.44995117 C2.72335937 231.52647949 3.00018555 232.60300781 3.28540039 233.7121582 C3.89150607 235.97405529 4.49828826 238.2357712 5.10571289 240.49731445 C5.40638672 241.63313965 5.70706055 242.76896484 6.0168457 243.93920898 C7.33535847 248.86093615 8.74472351 253.75516491 10.16040039 258.6496582 C12.13714226 265.50967451 14.0316565 272.38593062 15.91040039 279.2746582 C56.83040039 279.2746582 97.75040039 279.2746582 139.91040039 279.2746582 C138.61619118 272.15650752 137.23168448 265.30178927 135.41040039 258.3371582 C132.09778482 245.40096971 129.18516505 232.37917674 126.25262451 219.35281372 C123.5877345 207.52539387 120.83928518 195.73823458 117.82104492 183.99536133 C116.09953022 177.22862775 114.64502393 170.43206766 113.37768555 163.56567383 C111.90421203 155.71877345 109.88589024 148.0065149 107.91040039 140.2746582 C103.65316413 123.56619685 99.52532841 106.87019187 95.91659546 90.00952148 C93.68216062 79.58352929 91.19576166 69.24065145 88.54833984 58.91113281 C85.80519389 48.1035561 83.43799866 37.2231797 81.13110352 26.31567383 C80.91857437 25.31989571 80.91857437 25.31989571 80.70175171 24.30400085 C80.31649181 22.49711841 79.93580821 20.68926196 79.55541992 18.88134766 C79.17025057 16.36232329 79.17025057 16.36232329 77.91040039 15.2746582 C75.4764402 15.17967175 73.07097087 15.14907403 70.63671875 15.16113281 C69.87579422 15.16098679 69.11486969 15.16084076 68.33088684 15.16069031 C65.80397741 15.16138959 63.27714077 15.16918266 60.75024414 15.17700195 C59.00289449 15.17886608 57.25554433 15.18029001 55.50819397 15.18128967 C50.90008105 15.18511528 46.29199944 15.19494592 41.68389893 15.20599365 C36.98531518 15.21620687 32.2867264 15.2207871 27.58813477 15.22583008 C18.36220952 15.23656815 9.13630755 15.25364507 -0.08959961 15.2746582 Z " fill="#F5F5F5" transform="translate(303.089599609375,107.725341796875)"/>
</svg>
