<?xml version="1.0" encoding="UTF-8"?>
<svg version="1.1" xmlns="http://www.w3.org/2000/svg" width="512" height="512">
<path d="M0 0 C4.10850295 0.00706499 8.21693005 -0.00906055 12.32540977 -0.02199733 C20.35051537 -0.04352141 28.37547854 -0.04354048 36.40060347 -0.03537179 C42.9293915 -0.02904504 49.45813832 -0.0302332 55.98692596 -0.03664386 C56.91984887 -0.03754552 57.85277177 -0.03844717 58.81396507 -0.03937615 C60.70981157 -0.04122755 62.60565807 -0.04309011 64.50150455 -0.04496371 C82.23640814 -0.06150165 99.97123193 -0.05285703 117.70613069 -0.03597813 C133.89410249 -0.02128343 150.08188864 -0.03591348 166.26983654 -0.06474829 C182.93707123 -0.09421324 199.60422045 -0.10509402 216.27148002 -0.09556609 C218.16025089 -0.09454366 220.04902177 -0.09354904 221.93779266 -0.09258258 C222.86684273 -0.09210619 223.7958928 -0.0916298 224.75309591 -0.09113898 C231.26514824 -0.08898428 237.77711876 -0.09872827 244.28915298 -0.11335361 C252.23802973 -0.13095875 260.18666999 -0.13064305 268.1355378 -0.10800195 C272.18261899 -0.09693376 276.22928482 -0.09352623 280.27634704 -0.11230266 C315.72901188 -0.26439979 340.78771232 7.4467725 366.52926719 32.53755772 C375.63260259 41.60883913 382.2311744 52.42571908 387.84176719 63.91255772 C388.15500938 64.53453038 388.46825157 65.15650303 388.79098594 65.79732335 C396.73593204 82.75672752 396.11244969 100.43521915 396.05216587 118.70627534 C396.043037 122.80592602 396.05712366 126.90551088 396.06808555 131.00514805 C396.08579349 139.0168309 396.08206517 147.02836314 396.07043499 155.04005168 C396.06136908 161.55745311 396.06019026 168.07481259 396.06453025 174.59221852 C396.06514319 175.52292577 396.06575612 176.45363301 396.06638762 177.41254351 C396.06766664 179.30380182 396.0689635 181.19506011 396.07027799 183.08631839 C396.08166149 200.78637369 396.06860584 218.48634589 396.04707652 236.18638755 C396.02921349 251.34075803 396.03230745 266.49500587 396.05075157 281.64937413 C396.072208 299.28678703 396.08055687 316.9241272 396.06830251 334.56155133 C396.06702845 336.44612267 396.06577096 338.33069403 396.06453025 340.21526539 C396.06391315 341.14228204 396.06329605 342.06929869 396.06266025 343.02440675 C396.05922119 349.52536873 396.06500449 356.0262842 396.07444847 362.52723897 C396.0857233 370.46226246 396.08251432 378.39712789 396.06132549 386.33213352 C396.05088735 390.37294469 396.04656776 394.41349334 396.0599221 398.45430195 C396.16246114 432.38664117 390.45738634 459.99938271 366.00192344 485.13521397 C340.96441381 508.92268641 312.35014309 513.16796516 279.05853438 513.07511544 C274.95003143 513.06805045 270.84160433 513.08417599 266.73312461 513.09711277 C258.70801901 513.11863685 250.68305584 513.11865592 242.65793092 513.11048723 C236.12914288 513.10416048 229.60039606 513.10534864 223.07160842 513.11175931 C222.13868552 513.11266096 221.20576261 513.11356262 220.24456931 513.11449159 C218.34872281 513.11634299 216.45287632 513.11820555 214.55702984 513.12007915 C196.82212624 513.13661709 179.08730246 513.12797247 161.35240369 513.11109357 C145.16443189 513.09639888 128.97664575 513.11102892 112.78869785 513.13986374 C96.12146316 513.16932869 79.45431393 513.18020946 62.78705436 513.17068154 C60.8982835 513.1696591 59.00951262 513.16866448 57.12074172 513.16769803 C56.19169165 513.16722164 55.26264158 513.16674525 54.30543848 513.16625442 C47.79338614 513.16409973 41.28141562 513.17384371 34.7693814 513.18846905 C26.82050465 513.20607419 18.87186439 513.20575849 10.92299659 513.1831174 C6.87591539 513.1720492 2.82924956 513.16864168 -1.21781266 513.1874181 C-36.67047749 513.33951523 -61.72917794 505.62834294 -87.47073281 480.53755772 C-96.57406821 471.46627632 -103.17264002 460.64939636 -108.78323281 449.16255772 C-109.096475 448.54058506 -109.40971718 447.91861241 -109.73245156 447.2777921 C-117.67739766 430.31838792 -117.05391531 412.63989629 -116.99363148 394.3688401 C-116.98450262 390.26918942 -116.99858928 386.16960456 -117.00955117 382.06996739 C-117.0272591 374.05828454 -117.02353079 366.0467523 -117.0119006 358.03506376 C-117.0028347 351.51766233 -117.00165588 345.00030286 -117.00599587 338.48289692 C-117.0066088 337.55218968 -117.00722173 336.62148243 -117.00785324 335.66257193 C-117.00913226 333.77131363 -117.01042912 331.88005533 -117.01174361 329.98879705 C-117.0231271 312.28874175 -117.01007145 294.58876956 -116.98854214 276.88872789 C-116.9706791 261.73435742 -116.97377306 246.58010957 -116.99221718 231.42574131 C-117.01367361 213.78832842 -117.02202249 196.15098824 -117.00976813 178.51356411 C-117.00849406 176.62899277 -117.00723658 174.74442141 -117.00599587 172.85985005 C-117.00537877 171.9328334 -117.00476167 171.00581675 -117.00412586 170.05070869 C-117.00068681 163.54974671 -117.0064701 157.04883125 -117.01591408 150.54787648 C-117.02718891 142.61285299 -117.02397994 134.67798755 -117.00279111 126.74298193 C-116.99235297 122.70217076 -116.98803337 118.6616221 -117.00138772 114.62081349 C-117.10392676 80.68847427 -111.39885196 53.07573274 -86.94338906 27.93990147 C-61.90587943 4.15242903 -33.29160871 -0.09284972 0 0 Z " fill="#000000" transform="translate(116.4707328081131,-0.5375577211380005)"/>
<path d="M0 0 C1.27630028 -0.00525696 1.27630028 -0.00525696 2.5783844 -0.01062012 C5.38966035 -0.0194189 8.2006844 -0.01359428 11.01196289 -0.00683594 C12.96725004 -0.00818324 14.92253687 -0.01012433 16.87782288 -0.01263428 C20.97587269 -0.01558313 25.07383532 -0.01129598 29.171875 -0.00195312 C34.4221158 0.0094337 39.67215195 0.00288528 44.92238522 -0.00909805 C48.96042926 -0.01632949 52.9984249 -0.01402268 57.03647041 -0.00884247 C58.97214342 -0.00750914 60.90782083 -0.00914261 62.84348869 -0.01380157 C65.55072522 -0.01888701 68.25763176 -0.01112783 70.96484375 0 C71.76344818 -0.00404846 72.56205261 -0.00809692 73.38485718 -0.01226807 C78.74148731 0.02847091 82.67837314 0.39004306 86.54711914 4.25878906 C87.29246174 6.75266915 87.94060148 9.20914699 88.53540039 11.73925781 C88.71884506 12.49547424 88.90228973 13.25169067 89.09129333 14.03082275 C89.68811503 16.50093621 90.27418032 18.97345518 90.85961914 21.44628906 C91.26782541 23.14892172 91.67635523 24.85147684 92.08520508 26.55395508 C94.66668022 37.34634769 97.12684309 48.16035757 99.42602539 59.01660156 C100.82233716 65.60579806 102.33335416 72.16855378 103.84887695 78.73120117 C104.80649012 82.90097501 105.71689678 87.07027852 106.53149414 91.27050781 C107.34579254 95.40145523 108.33418186 99.46100032 109.39819336 103.53393555 C112.61289783 115.84667287 115.29668593 128.247814 117.92211914 140.69628906 C120.65854035 153.66053664 123.49875846 166.58159178 126.67211914 179.44628906 C126.8364444 180.11270416 127.00076965 180.77911926 127.17007446 181.46572876 C127.33357391 182.12873993 127.49707336 182.7917511 127.66552734 183.47485352 C130.84733363 196.38527029 133.77160805 209.34582114 136.66625977 222.32373047 C137.59138755 226.46431434 138.52941982 230.60193188 139.46899414 234.73925781 C139.78858484 236.14794681 140.10816502 237.55663819 140.42773438 238.96533203 C141.03050491 241.6221161 141.63433861 244.278651 142.23876953 246.93505859 C143.0176182 250.37430366 143.78705877 253.81534641 144.54711914 257.25878906 C144.75973389 258.22042969 144.97234863 259.18207031 145.19140625 260.17285156 C146.43810645 266.05505436 147.228938 271.36164215 145.54711914 277.25878906 C142.14453978 281.02921484 139.00156192 282.13019264 134.03863621 282.39021683 C133.09015277 282.39319149 132.14166933 282.39616615 131.16444397 282.39923096 C130.07233109 282.4049411 128.9802182 282.41065125 127.85501099 282.41653442 C126.66165131 282.41765228 125.46829163 282.41877014 124.23876953 282.41992188 C122.97825272 282.42488678 121.7177359 282.42985168 120.41902161 282.43496704 C116.96448798 282.44806503 113.50997377 282.45453053 110.05541921 282.4589777 C107.89649079 282.46191173 105.73756765 282.46601709 103.57864189 282.47048187 C96.82168575 282.48414797 90.0647417 282.4938198 83.3077727 282.49768376 C75.51132671 282.50216696 67.71505583 282.51973055 59.91866308 282.54868436 C53.88882655 282.57029974 47.85903931 282.58038791 41.82916445 282.58172488 C38.22903387 282.58277272 34.6290681 282.58867632 31.02897835 282.60654449 C27.01416508 282.6260847 22.99971882 282.62173684 18.98486328 282.61523438 C17.79352783 282.62444916 16.60219238 282.63366394 15.37475586 282.64315796 C13.7323568 282.63480423 13.7323568 282.63480423 12.05677795 282.62628174 C11.10791749 282.6277483 10.15905703 282.62921486 9.18144321 282.63072586 C5.99345414 282.18061782 4.12988008 281.15781347 1.54711914 279.25878906 C-1.81325916 273.08273218 -3.42765308 266.04260944 -5.39038086 259.32128906 C-5.74229492 258.1230249 -6.09420898 256.92476074 -6.45678711 255.69018555 C-13.45288086 231.68483887 -13.45288086 231.68483887 -13.45288086 225.25878906 C-31.93288086 225.58878906 -50.41288086 225.91878906 -69.45288086 226.25878906 C-71.43288086 232.85878906 -73.41288086 239.45878906 -75.45288086 246.25878906 C-77.48862489 252.82869026 -79.56782835 259.38208556 -81.69506836 265.92285156 C-82.34211079 267.91734318 -82.97689438 269.91580478 -83.60913086 271.91503906 C-83.92881836 272.87410156 -84.24850586 273.83316406 -84.57788086 274.82128906 C-84.82795898 275.58570313 -85.07803711 276.35011719 -85.33569336 277.13769531 C-86.95673328 280.21540398 -88.4495442 282.48514293 -91.45288086 284.25878906 C-95.57367721 285.02935401 -99.66089429 284.95176481 -103.84301758 284.92163086 C-105.10046783 284.93199875 -106.35791809 284.94236664 -107.6534729 284.95304871 C-111.09590789 284.98007528 -114.53761747 284.97540176 -117.9801116 284.96334815 C-120.85776076 284.95620858 -123.73527644 284.96472191 -126.61291516 284.97325355 C-133.40458228 284.99319968 -140.19589739 284.9876452 -146.98754883 284.96557617 C-153.98436533 284.94322614 -160.98025852 284.96079461 -167.97698772 284.99862546 C-173.99250611 285.02990346 -180.00773935 285.03776181 -186.0233289 285.02667171 C-189.61245963 285.02019647 -193.20105807 285.02212859 -196.7901268 285.04599571 C-200.79531281 285.071274 -204.79878928 285.04758036 -208.80395508 285.01928711 C-209.98652893 285.03300354 -211.16910278 285.04671997 -212.38751221 285.06085205 C-218.75550355 284.97096552 -222.62734296 284.40024607 -227.26408577 279.86422443 C-229.80364295 276.43462167 -229.6814398 273.12754613 -229.18139648 269.0390625 C-228.7629511 266.54982278 -228.24962008 264.09791237 -227.70288086 261.63378906 C-227.53272461 260.82039063 -227.36256836 260.00699219 -227.18725586 259.16894531 C-225.97274816 253.42682436 -224.64008552 247.71184208 -223.31420898 241.99462891 C-221.53960833 234.29765066 -219.8119088 226.58998993 -218.07788086 218.88378906 C-217.87868042 217.9992807 -217.67947998 217.11477234 -217.47424316 216.20346069 C-214.9763848 205.10884404 -212.51284897 194.00833599 -210.12744141 182.88891602 C-208.61521775 175.88690608 -206.94647461 168.92752268 -205.25878906 161.96606445 C-203.65392081 155.27478393 -202.24955932 148.55646632 -200.97216797 141.79516602 C-199.82969826 135.83730664 -198.45542895 129.94101094 -197.05355835 124.03999329 C-195.13219734 115.94205833 -193.31741675 107.82148058 -191.51538086 99.69628906 C-191.34235443 98.91808807 -191.169328 98.13988708 -190.99105835 97.33810425 C-188.63213433 86.72328472 -186.35747876 76.09520975 -184.17578125 65.44238281 C-182.70245343 58.30771976 -181.05656279 51.2246375 -179.33154297 44.14697266 C-177.47430344 36.48868963 -175.81855448 28.79145651 -174.23999023 21.07104492 C-171.34299748 7.30419164 -171.34299748 7.30419164 -167.88682556 3.56407166 C-164.32250708 1.65258909 -160.85460297 1.8328033 -156.90820312 1.85473633 C-156.0475827 1.84787308 -155.18696228 1.84100983 -154.30026245 1.8339386 C-151.456436 1.8156429 -148.61315977 1.81951209 -145.76928711 1.82519531 C-143.79157837 1.82063477 -141.81387122 1.81532957 -139.83616638 1.80931091 C-135.69100507 1.80037431 -131.54603636 1.80280913 -127.40087891 1.81274414 C-122.08992391 1.82423311 -116.77963385 1.80402611 -111.46876621 1.774827 C-107.38437174 1.75647693 -103.30013694 1.75675512 -99.21571159 1.76246452 C-97.25770065 1.76261789 -95.29967899 1.75656078 -93.34170723 1.74417305 C-90.60303216 1.72928784 -87.86558974 1.73992182 -85.12695312 1.75708008 C-83.91502037 1.74257812 -83.91502037 1.74257812 -82.67860413 1.7277832 C-79.00249951 1.77598802 -76.69022232 2.11725189 -73.50791931 4.01499939 C-71.38668512 6.33106474 -70.61700289 7.64450531 -69.89819336 10.66113281 C-69.57059273 11.97335564 -69.57059273 11.97335564 -69.2363739 13.31208801 C-69.0190712 14.26387436 -68.80176849 15.21566071 -68.57788086 16.19628906 C-68.3314534 17.20459274 -68.08502594 18.21289642 -67.83113098 19.25175476 C-67.0208949 22.58347781 -66.23708145 25.92085119 -65.45288086 29.25878906 C-64.89324289 31.57933264 -64.33160952 33.89939583 -63.76806641 36.21899414 C-62.5894849 41.0763316 -61.41970495 45.935674 -60.25512695 50.79638672 C-57.62629645 61.72900895 -54.87020882 72.62972142 -52.12451172 83.53344727 C-50.75705708 88.96557242 -49.39438016 94.39887891 -48.03491211 99.83300781 C-47.80214066 100.75901291 -47.5693692 101.68501801 -47.32954407 102.63908386 C-45.94865842 108.1616406 -44.6649532 113.69666496 -43.45288086 119.25878906 C-41.51155024 115.5735369 -40.52625945 111.89757082 -39.60522461 107.85644531 C-39.43285278 107.11959503 -39.26048096 106.38274475 -39.08288574 105.62356567 C-38.71000414 104.02756846 -38.33934927 102.43104972 -37.97067261 100.83407593 C-36.97502816 96.52272342 -35.96257792 92.21530535 -34.95288086 87.90722656 C-34.74545761 87.02010483 -34.53803436 86.13298309 -34.32432556 85.21897888 C-31.87475622 74.75620112 -29.32825064 64.31737383 -26.77246094 53.88012695 C-26.40152617 52.36444141 -26.03067632 50.84873509 -25.65991211 49.33300781 C-25.47773636 48.58843826 -25.29556061 47.84386871 -25.10786438 47.07673645 C-23.97515729 42.43495557 -22.86430272 37.78847426 -21.76985168 33.13752747 C-21.04855712 30.0728234 -20.32146923 27.00950478 -19.5942688 23.94619751 C-19.25400444 22.50484486 -18.916751 21.0627776 -18.58273315 19.6199646 C-18.12262367 17.63320135 -17.65128046 15.64904982 -17.17944336 13.66503906 C-16.91728027 12.54419922 -16.65511719 11.42335938 -16.38500977 10.26855469 C-15.24825118 6.59805708 -14.09167255 3.42763232 -10.8785553 1.13592529 C-7.29581451 -0.15961202 -3.76134969 -0.01901966 0 0 Z " fill="#010101" transform="translate(297.452880859375,113.7412109375)"/>
<path d="M0 0 C1.27630028 -0.00525696 1.27630028 -0.00525696 2.5783844 -0.01062012 C5.38966035 -0.0194189 8.2006844 -0.01359428 11.01196289 -0.00683594 C12.96725004 -0.00818324 14.92253687 -0.01012433 16.87782288 -0.01263428 C20.97587269 -0.01558313 25.07383532 -0.01129598 29.171875 -0.00195312 C34.4221158 0.0094337 39.67215195 0.00288528 44.92238522 -0.00909805 C48.96042926 -0.01632949 52.9984249 -0.01402268 57.03647041 -0.00884247 C58.97214342 -0.00750914 60.90782083 -0.00914261 62.84348869 -0.01380157 C65.55072522 -0.01888701 68.25763176 -0.01112783 70.96484375 0 C71.76344818 -0.00404846 72.56205261 -0.00809692 73.38485718 -0.01226807 C78.74148731 0.02847091 82.67837314 0.39004306 86.54711914 4.25878906 C87.29246174 6.75266915 87.94060148 9.20914699 88.53540039 11.73925781 C88.71884506 12.49547424 88.90228973 13.25169067 89.09129333 14.03082275 C89.68811503 16.50093621 90.27418032 18.97345518 90.85961914 21.44628906 C91.26782541 23.14892172 91.67635523 24.85147684 92.08520508 26.55395508 C94.66668022 37.34634769 97.12684309 48.16035757 99.42602539 59.01660156 C100.82233716 65.60579806 102.33335416 72.16855378 103.84887695 78.73120117 C104.80649012 82.90097501 105.71689678 87.07027852 106.53149414 91.27050781 C107.34579254 95.40145523 108.33418186 99.46100032 109.39819336 103.53393555 C112.61289783 115.84667287 115.29668593 128.247814 117.92211914 140.69628906 C120.65854035 153.66053664 123.49875846 166.58159178 126.67211914 179.44628906 C126.8364444 180.11270416 127.00076965 180.77911926 127.17007446 181.46572876 C127.33357391 182.12873993 127.49707336 182.7917511 127.66552734 183.47485352 C130.84733363 196.38527029 133.77160805 209.34582114 136.66625977 222.32373047 C137.59138755 226.46431434 138.52941982 230.60193188 139.46899414 234.73925781 C139.78858484 236.14794681 140.10816502 237.55663819 140.42773438 238.96533203 C141.03050491 241.6221161 141.63433861 244.278651 142.23876953 246.93505859 C143.0176182 250.37430366 143.78705877 253.81534641 144.54711914 257.25878906 C144.75973389 258.22042969 144.97234863 259.18207031 145.19140625 260.17285156 C146.43810645 266.05505436 147.228938 271.36164215 145.54711914 277.25878906 C142.14453978 281.02921484 139.00156192 282.13019264 134.03863621 282.39021683 C133.09015277 282.39319149 132.14166933 282.39616615 131.16444397 282.39923096 C130.07233109 282.4049411 128.9802182 282.41065125 127.85501099 282.41653442 C126.66165131 282.41765228 125.46829163 282.41877014 124.23876953 282.41992188 C122.97825272 282.42488678 121.7177359 282.42985168 120.41902161 282.43496704 C116.96448798 282.44806503 113.50997377 282.45453053 110.05541921 282.4589777 C107.89649079 282.46191173 105.73756765 282.46601709 103.57864189 282.47048187 C96.82168575 282.48414797 90.0647417 282.4938198 83.3077727 282.49768376 C75.51132671 282.50216696 67.71505583 282.51973055 59.91866308 282.54868436 C53.88882655 282.57029974 47.85903931 282.58038791 41.82916445 282.58172488 C38.22903387 282.58277272 34.6290681 282.58867632 31.02897835 282.60654449 C27.01416508 282.6260847 22.99971882 282.62173684 18.98486328 282.61523438 C17.79352783 282.62444916 16.60219238 282.63366394 15.37475586 282.64315796 C13.7323568 282.63480423 13.7323568 282.63480423 12.05677795 282.62628174 C11.10791749 282.6277483 10.15905703 282.62921486 9.18144321 282.63072586 C5.99345414 282.18061782 4.12988008 281.15781347 1.54711914 279.25878906 C-1.81325916 273.08273218 -3.42765308 266.04260944 -5.39038086 259.32128906 C-5.74229492 258.1230249 -6.09420898 256.92476074 -6.45678711 255.69018555 C-13.45288086 231.68483887 -13.45288086 231.68483887 -13.45288086 225.25878906 C-31.93288086 225.58878906 -50.41288086 225.91878906 -69.45288086 226.25878906 C-71.43288086 232.85878906 -73.41288086 239.45878906 -75.45288086 246.25878906 C-77.48862489 252.82869026 -79.56782835 259.38208556 -81.69506836 265.92285156 C-82.34211079 267.91734318 -82.97689438 269.91580478 -83.60913086 271.91503906 C-83.92881836 272.87410156 -84.24850586 273.83316406 -84.57788086 274.82128906 C-84.82795898 275.58570313 -85.07803711 276.35011719 -85.33569336 277.13769531 C-86.95673328 280.21540398 -88.4495442 282.48514293 -91.45288086 284.25878906 C-95.57367721 285.02935401 -99.66089429 284.95176481 -103.84301758 284.92163086 C-105.10046783 284.93199875 -106.35791809 284.94236664 -107.6534729 284.95304871 C-111.09590789 284.98007528 -114.53761747 284.97540176 -117.9801116 284.96334815 C-120.85776076 284.95620858 -123.73527644 284.96472191 -126.61291516 284.97325355 C-133.40458228 284.99319968 -140.19589739 284.9876452 -146.98754883 284.96557617 C-153.98436533 284.94322614 -160.98025852 284.96079461 -167.97698772 284.99862546 C-173.99250611 285.02990346 -180.00773935 285.03776181 -186.0233289 285.02667171 C-189.61245963 285.02019647 -193.20105807 285.02212859 -196.7901268 285.04599571 C-200.79531281 285.071274 -204.79878928 285.04758036 -208.80395508 285.01928711 C-209.98652893 285.03300354 -211.16910278 285.04671997 -212.38751221 285.06085205 C-218.75550355 284.97096552 -222.62734296 284.40024607 -227.26408577 279.86422443 C-229.80364295 276.43462167 -229.6814398 273.12754613 -229.18139648 269.0390625 C-228.7629511 266.54982278 -228.24962008 264.09791237 -227.70288086 261.63378906 C-227.53272461 260.82039063 -227.36256836 260.00699219 -227.18725586 259.16894531 C-225.97274816 253.42682436 -224.64008552 247.71184208 -223.31420898 241.99462891 C-221.53960833 234.29765066 -219.8119088 226.58998993 -218.07788086 218.88378906 C-217.87868042 217.9992807 -217.67947998 217.11477234 -217.47424316 216.20346069 C-214.9763848 205.10884404 -212.51284897 194.00833599 -210.12744141 182.88891602 C-208.61521775 175.88690608 -206.94647461 168.92752268 -205.25878906 161.96606445 C-203.65392081 155.27478393 -202.24955932 148.55646632 -200.97216797 141.79516602 C-199.82969826 135.83730664 -198.45542895 129.94101094 -197.05355835 124.03999329 C-195.13219734 115.94205833 -193.31741675 107.82148058 -191.51538086 99.69628906 C-191.34235443 98.91808807 -191.169328 98.13988708 -190.99105835 97.33810425 C-188.63213433 86.72328472 -186.35747876 76.09520975 -184.17578125 65.44238281 C-182.70245343 58.30771976 -181.05656279 51.2246375 -179.33154297 44.14697266 C-177.47430344 36.48868963 -175.81855448 28.79145651 -174.23999023 21.07104492 C-171.34299748 7.30419164 -171.34299748 7.30419164 -167.88682556 3.56407166 C-164.32250708 1.65258909 -160.85460297 1.8328033 -156.90820312 1.85473633 C-156.0475827 1.84787308 -155.18696228 1.84100983 -154.30026245 1.8339386 C-151.456436 1.8156429 -148.61315977 1.81951209 -145.76928711 1.82519531 C-143.79157837 1.82063477 -141.81387122 1.81532957 -139.83616638 1.80931091 C-135.69100507 1.80037431 -131.54603636 1.80280913 -127.40087891 1.81274414 C-122.08992391 1.82423311 -116.77963385 1.80402611 -111.46876621 1.774827 C-107.38437174 1.75647693 -103.30013694 1.75675512 -99.21571159 1.76246452 C-97.25770065 1.76261789 -95.29967899 1.75656078 -93.34170723 1.74417305 C-90.60303216 1.72928784 -87.86558974 1.73992182 -85.12695312 1.75708008 C-83.91502037 1.74257812 -83.91502037 1.74257812 -82.67860413 1.7277832 C-79.00249951 1.77598802 -76.69022232 2.11725189 -73.50791931 4.01499939 C-71.38668512 6.33106474 -70.61700289 7.64450531 -69.89819336 10.66113281 C-69.57059273 11.97335564 -69.57059273 11.97335564 -69.2363739 13.31208801 C-69.0190712 14.26387436 -68.80176849 15.21566071 -68.57788086 16.19628906 C-68.3314534 17.20459274 -68.08502594 18.21289642 -67.83113098 19.25175476 C-67.0208949 22.58347781 -66.23708145 25.92085119 -65.45288086 29.25878906 C-64.89324289 31.57933264 -64.33160952 33.89939583 -63.76806641 36.21899414 C-62.5894849 41.0763316 -61.41970495 45.935674 -60.25512695 50.79638672 C-57.62629645 61.72900895 -54.87020882 72.62972142 -52.12451172 83.53344727 C-50.75705708 88.96557242 -49.39438016 94.39887891 -48.03491211 99.83300781 C-47.80214066 100.75901291 -47.5693692 101.68501801 -47.32954407 102.63908386 C-45.94865842 108.1616406 -44.6649532 113.69666496 -43.45288086 119.25878906 C-41.51155024 115.5735369 -40.52625945 111.89757082 -39.60522461 107.85644531 C-39.43285278 107.11959503 -39.26048096 106.38274475 -39.08288574 105.62356567 C-38.71000414 104.02756846 -38.33934927 102.43104972 -37.97067261 100.83407593 C-36.97502816 96.52272342 -35.96257792 92.21530535 -34.95288086 87.90722656 C-34.74545761 87.02010483 -34.53803436 86.13298309 -34.32432556 85.21897888 C-31.87475622 74.75620112 -29.32825064 64.31737383 -26.77246094 53.88012695 C-26.40152617 52.36444141 -26.03067632 50.84873509 -25.65991211 49.33300781 C-25.47773636 48.58843826 -25.29556061 47.84386871 -25.10786438 47.07673645 C-23.97515729 42.43495557 -22.86430272 37.78847426 -21.76985168 33.13752747 C-21.04855712 30.0728234 -20.32146923 27.00950478 -19.5942688 23.94619751 C-19.25400444 22.50484486 -18.916751 21.0627776 -18.58273315 19.6199646 C-18.12262367 17.63320135 -17.65128046 15.64904982 -17.17944336 13.66503906 C-16.91728027 12.54419922 -16.65511719 11.42335938 -16.38500977 10.26855469 C-15.24825118 6.59805708 -14.09167255 3.42763232 -10.8785553 1.13592529 C-7.29581451 -0.15961202 -3.76134969 -0.01901966 0 0 Z M5.54711914 24.25878906 C2.2241013 34.89244615 -0.7508103 45.23182671 -3.07788086 56.07128906 C-4.81040369 64.04852032 -6.58117479 71.98911365 -8.78735352 79.85180664 C-9.73524835 83.2800147 -10.53241994 86.72934657 -11.32788086 90.19628906 C-12.81065349 96.61360636 -14.39123116 103.00089899 -16.01538086 109.38378906 C-17.46964139 115.11234875 -18.80223215 120.82179477 -19.89038086 126.63378906 C-21.28314296 133.93186246 -23.25352646 141.02961449 -25.25244141 148.18237305 C-27.0283778 154.57607819 -28.53586215 160.95814592 -29.87475586 167.45800781 C-31.80921509 176.82967855 -31.80921509 176.82967855 -35.45288086 179.25878906 C-37.98771179 179.5327469 -40.35478461 179.67440952 -42.89038086 179.69628906 C-44.2090918 179.73625 -45.52780273 179.77621094 -46.88647461 179.81738281 C-50.45288086 179.25878906 -50.45288086 179.25878906 -52.79663086 177.20410156 C-54.71379075 173.7948125 -55.69809826 170.48374037 -56.51538086 166.69628906 C-56.84854228 165.26005126 -57.18187695 163.82385363 -57.51538086 162.38769531 C-57.67393555 161.68402832 -57.83249023 160.98036133 -57.99584961 160.25537109 C-58.61857182 157.53495322 -59.31717667 154.83569381 -60.01538086 152.13378906 C-61.03102338 148.08742605 -61.92566227 144.03259403 -62.76538086 139.94628906 C-64.31569623 132.56189216 -66.25282862 125.294451 -68.18823242 118.00292969 C-69.76804858 112.00863344 -71.22043807 106.00818118 -72.51538086 99.94628906 C-73.9738058 93.12299834 -75.75020314 86.4338345 -77.66796875 79.72631836 C-79.24656877 74.15339116 -80.48535889 68.55655327 -81.64038086 62.87988281 C-82.74664145 57.94957718 -84.1247333 53.10735737 -85.56420898 48.26464844 C-87.68290451 40.95480823 -88.93794738 33.83345645 -90.45288086 26.25878906 C-110.25288086 26.25878906 -130.05288086 26.25878906 -150.45288086 26.25878906 C-151.6612663 30.4881381 -152.82850751 34.65282946 -153.85522461 38.91894531 C-154.10401367 39.95204834 -154.35280273 40.98515137 -154.60913086 42.04956055 C-154.86694336 43.12923096 -155.12475586 44.20890137 -155.39038086 45.32128906 C-155.65979492 46.44672119 -155.92920898 47.57215332 -156.20678711 48.73168945 C-157.76058521 55.25566151 -159.24387573 61.78631199 -160.60913086 68.35253906 C-161.82515827 73.9822956 -163.14587627 79.58706103 -164.45288086 85.19628906 C-166.04930363 92.05531562 -167.62931486 98.90408102 -168.95288086 105.82128906 C-170.22236842 112.41661495 -171.79764961 118.92209481 -173.39038086 125.44628906 C-175.44793559 133.88408763 -177.33378944 142.32389271 -178.97949219 150.85107422 C-180.38885379 158.10236059 -182.01698479 165.29642856 -183.703125 172.48803711 C-184.74518436 176.97147318 -185.68652795 181.44753992 -186.48413086 185.98144531 C-187.21604483 190.11329997 -188.15747516 194.10024214 -189.32788086 198.13378906 C-190.97455276 204.02436616 -192.18683112 209.92772936 -193.26538086 215.94628906 C-195.08225175 226.06722817 -197.55540914 235.98638154 -200.16699219 245.92944336 C-200.4624292 247.06937744 -200.75786621 248.20931152 -201.06225586 249.38378906 C-201.33005859 250.39699219 -201.59786133 251.41019531 -201.8737793 252.45410156 C-202.62138997 255.59759924 -202.62138997 255.59759924 -202.45288086 260.25878906 C-170.44288086 260.25878906 -138.43288086 260.25878906 -105.45288086 260.25878906 C-95.95220743 234.14268492 -95.95220743 234.14268492 -89.07348633 207.16674805 C-88.31058078 204.82130869 -87.36363004 203.7973181 -85.45288086 202.25878906 C-81.83639105 201.05329246 -78.52134905 201.10335359 -74.75610352 201.09765625 C-73.97365768 201.09269135 -73.19121185 201.08772644 -72.38505554 201.08261108 C-69.79567588 201.06800178 -67.20635747 201.06118975 -64.61694336 201.05566406 C-62.81716917 201.04991188 -61.017395 201.04415416 -59.21762085 201.03839111 C-55.44317336 201.02788483 -51.66874716 201.02203963 -47.89428711 201.01855469 C-43.05985714 201.01306875 -38.22570863 200.98903708 -33.39136696 200.96058273 C-29.67330098 200.94195209 -25.95530277 200.93675054 -22.23719406 200.93521881 C-20.45501541 200.93219305 -18.67283793 200.92416707 -16.89070511 200.91103363 C-14.39640165 200.89396303 -11.90278557 200.89585561 -9.40844727 200.90234375 C-8.67372696 200.89312897 -7.93900665 200.88391418 -7.18202209 200.87442017 C-2.76914795 200.91034552 0.06811807 201.49176001 3.54711914 204.25878906 C6.0889788 209.04381058 7.30103218 213.90878364 8.42211914 219.19628906 C10.00044168 226.2623772 11.95773038 233.1081958 14.20336914 239.98925781 C16.10821708 246.04157991 17.80401308 252.15791784 19.54711914 258.25878906 C52.87711914 258.25878906 86.20711914 258.25878906 120.54711914 258.25878906 C118.89711914 251.32878906 117.24711914 244.39878906 115.54711914 237.25878906 C114.34407242 231.82381915 113.15256201 226.38863044 111.98461914 220.94628906 C109.97509891 211.6466351 107.89180775 202.38581321 105.51196289 193.17285156 C103.7073436 186.02694111 102.24738317 178.7955226 100.69946289 171.59082031 C99.63744611 166.65214277 98.51016648 161.73131839 97.35571289 156.81347656 C96.68008523 153.84332598 96.03102324 150.87032841 95.39477539 147.89160156 C92.6936508 135.17031528 92.6936508 135.17031528 89.48461914 122.57128906 C87.69657431 116.10571895 86.38661521 109.60679304 85.11938477 103.02514648 C83.7575996 96.06056915 82.08939764 89.20066984 80.33032227 82.32714844 C78.88645655 76.67163749 77.61263931 71.00255322 76.42993164 65.28613281 C75.01430052 58.65233785 73.33909631 52.07279923 71.70361328 45.49047852 C71.45474365 44.47300537 71.20587402 43.45553223 70.94946289 42.40722656 C70.61676392 41.064104 70.61676392 41.064104 70.27734375 39.69384766 C69.1909139 34.5831596 68.40608556 29.41258756 67.54711914 24.25878906 C47.08711914 24.25878906 26.62711914 24.25878906 5.54711914 24.25878906 Z " fill="#F9F9F9" transform="translate(297.452880859375,113.7412109375)"/>
</svg>
